<svg width="232" height="42" viewBox="0 0 232 42" fill="none" xmlns="http://www.w3.org/2000/svg">
<path d="M128.792 15.4174C126.03 13.3313 122.495 12.694 119.072 13.6795C115.586 14.6651 112.81 17.4547 111.825 20.9268C110.849 24.3502 111.487 27.899 113.573 30.6467C115.649 33.3945 118.821 34.9686 122.259 34.9686C124.595 34.9686 126.87 34.2059 128.743 32.8199V34.3313L128.83 35.0452H132.428L133.138 34.9581V23.5875C133.138 23.5875 133.128 23.5353 133.124 23.4308C133.083 22.588 132.877 18.5029 128.792 15.4139V15.4174ZM126.845 28.6895L126.831 28.7139C125.208 30.3368 122.158 31.5243 118.922 29.5392C118.059 29.0134 117.334 28.2785 116.812 27.4288C114.823 24.1935 116.011 21.1323 117.637 19.5059C118.661 18.482 120.235 17.6323 122.074 17.6323C123.161 17.6323 124.348 17.9318 125.56 18.6701C126.424 19.196 127.148 19.9308 127.671 20.7805C129.659 24.0159 128.472 27.0666 126.845 28.6895Z" fill="#231815"/>
<path d="M109.192 14.0661C109.018 13.8397 108.753 13.7039 108.467 13.7039H105.319C104.918 13.7039 104.57 13.9651 104.455 14.3552L100.844 26.593C100.795 26.781 100.52 26.781 100.468 26.593L97.382 16.2567C97.2323 15.7308 96.7447 15.3825 96.2083 15.3825H94.0596C93.5093 15.3825 93.0357 15.7447 92.8859 16.2567L89.8003 26.5825C89.7515 26.7706 89.4764 26.7706 89.4241 26.5825L85.8509 14.4457C85.7256 14.0069 85.3251 13.7074 84.8619 13.7074H81.8006C81.5115 13.7074 81.2504 13.8432 81.0762 14.0696C80.9021 14.296 80.8638 14.5955 80.9404 14.8706L86.7634 34.6308C86.84 34.8815 87.0629 35.0417 87.3137 35.0417H91.1899C91.4406 35.0417 91.6635 34.8781 91.7401 34.6308L95.1392 23.2567L98.5139 34.6308C98.5905 34.8815 98.8134 35.0417 99.0781 35.0417H102.979C103.229 35.0417 103.452 34.8781 103.529 34.6308L109.341 14.8706C109.418 14.5955 109.366 14.296 109.192 14.0696H109.206L109.192 14.0661Z" fill="#231815"/>
<path d="M142.238 16.6991H138.714C138.313 16.6991 137.99 16.9777 137.99 17.3399V34.3941C137.99 34.7424 138.313 35.0349 138.714 35.0349H142.238C142.639 35.0349 142.963 34.7563 142.963 34.3941V17.3399C142.963 16.9916 142.639 16.6991 142.238 16.6991Z" fill="#231815"/>
<path d="M140.477 7.53284C138.84 7.53284 137.502 8.87016 137.502 10.507C137.502 12.1438 138.84 13.4811 140.477 13.4811C142.113 13.4811 143.451 12.1438 143.451 10.507C143.451 8.87016 142.113 7.53284 140.477 7.53284Z" fill="#231815"/>
<path d="M186.747 7.53284H183.512C183.024 7.53284 182.634 7.93334 182.634 8.40697V34.1607C182.634 34.6483 183.021 35.0348 183.512 35.0348H186.747C187.235 35.0348 187.621 34.6483 187.621 34.1607V8.40697C187.621 7.91941 187.235 7.53284 186.747 7.53284Z" fill="#231815"/>
<path d="M202.697 13.2791C196.7 13.2791 191.814 18.1651 191.814 24.1621C191.814 30.1592 196.7 35.0452 202.697 35.0452C208.695 35.0452 213.581 30.1592 213.581 24.1621C213.581 18.1651 208.695 13.2791 202.697 13.2791ZM202.697 30.6467C199.124 30.6467 196.213 27.7353 196.213 24.1621C196.213 20.589 199.124 17.6776 202.697 17.6776C206.271 17.6776 209.182 20.589 209.182 24.1621C209.182 27.7353 206.271 30.6467 202.697 30.6467Z" fill="#231815"/>
<path d="M224.231 18.7989H230.963C231.179 18.7989 231.346 18.6318 231.346 18.4158V14.9855C231.346 14.7696 231.179 14.6024 230.963 14.6024H224.231C224.015 14.6024 223.848 14.4352 223.848 14.2193V7.99245C223.848 7.77653 223.681 7.60938 223.465 7.60938H219.47C219.254 7.60938 219.087 7.77653 219.087 7.99245V14.2193C219.087 14.4352 218.92 14.6024 218.704 14.6024H215.5C215.284 14.6024 215.117 14.7696 215.117 14.9855V18.4158C215.117 18.6318 215.284 18.7989 215.5 18.7989H218.69C218.906 18.7989 219.073 18.9661 219.073 19.182V27.3696C219.073 31.6392 222.528 35.0939 226.798 35.0939H230.956C231.172 35.0939 231.339 34.9268 231.339 34.7109V31.2805C231.339 31.0646 231.172 30.8974 230.956 30.8974H228.044C225.593 30.8974 223.841 28.9193 223.841 26.4502V19.1785C223.841 18.9626 224.008 18.7954 224.224 18.7954L224.231 18.7989Z" fill="#231815"/>
<path d="M175.299 7.53284C173.656 7.53284 172.325 8.8632 172.325 10.507C172.325 12.1508 173.656 13.4811 175.299 13.4811C176.943 13.4811 178.274 12.1508 178.274 10.507C178.274 8.8632 176.943 7.53284 175.299 7.53284Z" fill="#231815"/>
<path d="M177.058 16.6991H173.537C173.136 16.6991 172.812 16.9777 172.812 17.3399V34.3941C172.812 34.7424 173.14 35.0349 173.537 35.0349H177.058C177.458 35.0349 177.782 34.7563 177.782 34.3941V17.3399C177.782 16.9916 177.455 16.6991 177.058 16.6991Z" fill="#231815"/>
<path d="M163.608 14.4702H163.622C159.61 12.5339 155.187 12.8822 151.865 15.3687V13.9583C151.865 13.5473 151.527 13.22 151.126 13.22H148.215C147.804 13.22 147.477 13.5578 147.477 13.9583V39.9105C147.477 40.3215 147.814 40.6488 148.215 40.6488H151.126C151.537 40.6488 151.865 40.311 151.865 39.9105V32.8269C153.738 34.2269 155.999 34.9757 158.349 34.9757C162.1 34.9757 165.548 33.0777 167.547 29.9016C169.609 26.6419 169.783 22.6299 168.01 18.907C167.098 16.9812 165.538 15.407 163.612 14.4702H163.608ZM162.957 28.6757L162.943 28.6896C161.32 30.3125 158.283 31.5001 155.044 29.5255C154.184 28.9996 153.446 28.2647 152.909 27.3871C150.921 24.1518 152.122 21.1011 153.745 19.4782C154.769 18.4543 156.343 17.6046 158.182 17.6046C159.269 17.6046 160.442 17.9041 161.654 18.6424C162.518 19.1787 163.253 19.917 163.793 20.7807C165.767 24.016 164.58 27.0667 162.957 28.6792V28.6757Z" fill="#231815"/>
<path d="M68.4866 21.61C68.3125 21.4463 68.3125 21.1712 68.4866 20.9971L78.043 8.29605C78.3182 8.03485 78.1301 7.57168 77.7435 7.57168L77.7574 7.55774H72.8713C72.7599 7.55774 72.6588 7.59605 72.5822 7.66918L65.1294 16.5463C64.8542 16.797 64.4154 16.609 64.4154 16.2329V7.98263C64.4154 7.74581 64.2273 7.55774 63.9905 7.55774H59.8392C59.6024 7.55774 59.4143 7.75626 59.4143 7.98263V34.6244C59.4143 34.8612 59.6024 35.0493 59.8392 35.0493H63.9905C64.2273 35.0493 64.4154 34.8612 64.4154 34.6244V26.3742C64.4154 25.9981 64.8542 25.81 65.1294 26.0607L74.5708 34.8369C74.6475 34.9135 74.745 34.9483 74.8599 34.9483L80.8535 35.0354C81.2436 35.0354 81.4316 34.5722 81.153 34.311L68.4901 21.61H68.4866Z" fill="#231815"/>
<path d="M21.0004 0.00346473C9.40316 0.00346473 0 9.40647 0 21.0035C0 27.3348 2.80354 33.0114 7.23348 36.8632L17.6222 15.5602H29.2438L16.5774 41.5333C18.0053 41.8398 19.482 42 21.0004 42C32.5976 42 42.0008 32.597 42.0008 21C42.0008 9.40298 32.5976 0 21.0004 0V0.00346473Z" fill="url(#paint0_linear_54_2282)"/>
<path d="M7.23348 36.8597L18.6949 13.3592C18.7262 13.293 18.7576 13.2269 18.7924 13.1607L18.9491 12.8368H18.9561C20.9865 9.03034 24.995 6.4393 29.6095 6.4393C34.6245 6.4393 38.9256 9.50049 40.7505 13.8537C37.8286 5.77412 30.0866 0 21.0004 0C9.40316 0 0 9.40298 0 21C0 27.3313 2.80354 33.008 7.23348 36.8597Z" fill="url(#paint1_linear_54_2282)"/>
<defs>
<linearGradient id="paint0_linear_54_2282" x1="19.9521" y1="8.29204" x2="22.4282" y2="38.3259" gradientUnits="userSpaceOnUse">
<stop offset="0.15" stop-color="#0047FF"/>
<stop offset="0.38" stop-color="#087DFF"/>
<stop offset="0.57" stop-color="#1DACF8"/>
<stop offset="1" stop-color="#32F3F3"/>
</linearGradient>
<linearGradient id="paint1_linear_54_2282" x1="24.5562" y1="7.56766" x2="9.01702" y2="33.3739" gradientUnits="userSpaceOnUse">
<stop stop-color="#31F2F2"/>
<stop offset="0.43" stop-color="#31D8F2"/>
<stop offset="0.7" stop-color="#0DB3FF"/>
<stop offset="1" stop-color="#007CEF"/>
</linearGradient>
</defs>
</svg>
